<?xml version="1.0" encoding="utf-8"?>
<!-- Generator: Adobe Illustrator 24.3.0, SVG Export Plug-In . SVG Version: 6.00 Build 0)  -->
<svg xmlns="http://www.w3.org/2000/svg" xmlns:xlink="http://www.w3.org/1999/xlink" version="1.1" id="Layer_1" x="0px" y="0px" viewBox="0 0 642 326" style="enable-background:new 0 0 642 326;" xml:space="preserve">
<style type="text/css">
	.st0{fill:none;stroke:#FFFFFF;stroke-width:4;stroke-miterlimit:10;}
	.st1{fill:none;stroke:#000000;stroke-width:2.4749;stroke-miterlimit:10;}
	.st2{fill:#FFFFFF;stroke:#FFFFFF;stroke-miterlimit:10;}
	.st3{fill:#00A5D9;stroke:#00A5D9;stroke-width:4.4548;stroke-linejoin:round;stroke-miterlimit:10;}
	.st4{fill-rule:evenodd;clip-rule:evenodd;fill:#B9DCE1;}
	.st5{fill:#00B259;}
	.st6{fill-rule:evenodd;clip-rule:evenodd;fill:#76C4D5;}
	.st7{fill:#76C4D5;}
	.st8{fill-rule:evenodd;clip-rule:evenodd;fill:#FFFFFF;}
	.st9{fill-rule:evenodd;clip-rule:evenodd;fill:#00A5D9;stroke:#00A5D9;stroke-miterlimit:10;}
	.st10{fill:none;stroke:#EC008C;stroke-width:4;stroke-miterlimit:10;}
	.st11{fill:none;stroke:#007698;stroke-width:4;stroke-miterlimit:10;}
	.st12{display:none;}
	.st13{display:inline;fill:none;}
	.st14{display:inline;}
	.st15{fill:none;stroke:#EC008C;stroke-width:2;stroke-miterlimit:10;}
	.st16{fill:#EC008C;}
	.st17{fill:none;}
</style>
<polyline class="st0" points="153.4,79.9 145.2,79.9 145.2,92.7 123.4,92.7 123.4,22.1 116,21.8 116,15.7 101.6,15.7 101.6,21.6   92.6,22.1 92.6,28.2 80.4,28.2 80.4,46.5 76.4,46.5 76.4,96.1 59.7,96.1 59.7,56.9 48.8,55.5 48.8,50.2 41.7,50.2 41.7,55.5   31.6,56.6 31.6,81.8 31.6,236.3 "/>
<path class="st1" d="M158.9,58.7"/>
<polyline class="st0" points="160.5,81.3 167.9,81.3 167.9,70.1 186.5,64.3 197.3,66.9 197.3,91.4 206.6,91.4 206.6,75.4   212.2,75.4 212.2,50.5 227.1,39.3 241.3,52.6 241.3,100.9 "/>
<g>
	<path class="st2" d="M29.7,271.4h4.4c5.7,0,9.4,2.7,9.4,9.8c0,5.8-2.8,9.9-8.8,9.9H34V303h-4.4v-31.6H29.7z M34.1,287.4   c3.8,0,4.9-2.8,4.9-6.2c0-3.6-1.5-6-4.9-6V287.4z"/>
	<path class="st2" d="M55.5,271.4l7.1,31.6H58l-1.2-6.5h-6.9l-1.2,6.5h-4.2l6.7-31.6H55.5z M56.1,293l-2.7-14.4h-0.1L50.6,293H56.1z   "/>
	<path class="st2" d="M66.3,271.4h7.1c4.8,0,8.2,3.4,8.2,8.7c0,3.2-1.8,6.8-5.4,7.8l6.4,15.1h-5l-5.8-14.5h-1V303h-4.4L66.3,271.4   L66.3,271.4z M70.7,284.8c4.3,0,6.3-1.3,6.3-5c0-2.6-1.7-4.6-4.8-4.6h-1.5V284.8z"/>
	<path class="st2" d="M90.2,275.4h-5.6v-4h15.5v4h-5.6V303h-4.4L90.2,275.4L90.2,275.4z"/>
	<path class="st2" d="M108.2,271.4l6.4,20h0.1v-20h4.2V303h-4.4l-6.4-20H108v20h-4.2v-31.6H108.2z"/>
	<path class="st2" d="M135.3,271.4v3.7h-7.1v9.2h7.1v3.7h-7.1v11.2h7.1v3.7h-11.5v-31.6L135.3,271.4L135.3,271.4z"/>
	<path class="st2" d="M139.2,271.4h7.1c4.8,0,8.2,3.4,8.2,8.7c0,3.2-1.8,6.8-5.4,7.8l6.4,15.1h-5l-5.8-14.5h-1V303h-4.4v-31.6H139.2   z M143.6,284.8c4.3,0,6.3-1.3,6.3-5c0-2.6-1.7-4.6-4.8-4.6h-1.5V284.8z"/>
	<path class="st2" d="M168.4,279.1c-0.2-2.4-0.9-4.4-3.2-4.4c-1.7,0-2.7,1.5-2.7,3.3c0,1.6,0.7,3.4,3,5.6l3.6,3.5   c3,2.9,3.9,5.3,3.9,8.6c0,4.3-2.6,7.9-7.6,7.9c-4.3,0-7.1-2.7-7.6-7.6l4.2-1.3c0.3,2.9,1.3,5.2,3.5,5.2c1.6,0,3.2-1.3,3.2-3.9   c0-1.7-0.7-3.6-3.1-6l-3.4-3.4c-2.8-2.8-3.9-5.3-3.9-8.4c0-4.7,3.4-7.5,7-7.5c4.3,0,7.1,2.6,7.2,6.9L168.4,279.1z"/>
	<path class="st2" d="M199.1,271.4v3.7H192v9.2h7.1v3.7H192v15h-4.4v-31.6H199.1z"/>
	<path class="st2" d="M210.8,270.8c7.6,0,8.3,8.3,8.3,16.4c0,8.7-1.5,16.4-8.3,16.4c-7.6,0-8.4-8.3-8.4-16.4   C202.5,278.5,204,270.8,210.8,270.8z M210.8,299.7c3.1,0,3.7-5.4,3.7-13.5c0-9.6-1.6-11.5-3.7-11.5c-2.3,0-3.8,3.2-3.8,13.2   C207.1,294.3,207.7,299.7,210.8,299.7z"/>
	<path class="st2" d="M223.5,271.4h7.1c4.8,0,8.2,3.4,8.2,8.7c0,3.2-1.8,6.8-5.4,7.8l6.4,15.1h-5l-5.8-14.5h-1V303h-4.4v-31.6H223.5   z M227.9,284.8c4.3,0,6.3-1.3,6.3-5c0-2.6-1.7-4.6-4.8-4.6h-1.5V284.8z"/>
	<path class="st2" d="M263.8,271.4L271,303h-4.6l-1.2-6.5h-6.9L257,303h-4.2l6.7-31.6H263.8z M264.5,293l-2.7-14.4h-0.1L259,293   H264.5z"/>
	<path class="st2" d="M296.7,279.5c-0.5-3.4-1.8-4.7-3.3-4.7c-3.4,0-4.3,5.9-4.3,12.1c0,7.1,0.8,12.9,4.2,12.9   c2.4,0,3.5-3.1,3.9-6.1l4.2,1.5c-0.7,4.7-3,8.6-8.2,8.6c-5.8,0-8.7-4.6-8.7-16.7c0-6.2,0.9-16.2,8.9-16.2c3.7,0,6.4,2.3,7.6,7.2   L296.7,279.5z"/>
	<path class="st2" d="M310,271.4v27.7h7v4h-11.4v-31.6h4.4V271.4z"/>
	<path class="st2" d="M332,271.4v3.7h-7.1v9.2h7.1v3.7h-7.1v11.2h7.1v3.7h-11.5v-31.6L332,271.4L332,271.4z"/>
	<path class="st2" d="M346,271.4l7.1,31.6h-4.6l-1.2-6.5h-6.9l-1.2,6.5H335l6.7-31.6H346z M346.6,293l-2.7-14.4h-0.1l-2.7,14.4   H346.6z"/>
	<path class="st2" d="M361.1,271.4l6.4,20h0.1v-20h4.2V303h-4.4l-6.4-20h-0.1v20h-4.2v-31.6H361.1z"/>
	<path class="st2" d="M388.2,271.4v3.7h-7.1v9.2h7.1v3.7h-7.1v11.2h7.1v3.7h-11.5v-31.6L388.2,271.4L388.2,271.4z"/>
	<path class="st2" d="M392.1,271.4h7.1c4.8,0,8.2,3.4,8.2,8.7c0,3.2-1.8,6.8-5.4,7.8l6.4,15.1h-5l-5.8-14.5h-1V303h-4.4v-31.6H392.1   z M396.5,284.8c4.3,0,6.3-1.3,6.3-5c0-2.6-1.7-4.6-4.8-4.6h-1.5V284.8z"/>
	<path class="st2" d="M434.4,271.4v3.7h-7.1v9.2h7.1v3.7h-7.1v11.2h7.1v3.7h-11.5v-31.6L434.4,271.4L434.4,271.4z"/>
	<path class="st2" d="M442.5,271.4l6.4,20h0.1v-20h4.2V303h-4.4l-6.4-20h-0.1v20h-4.2v-31.6H442.5z"/>
	<path class="st2" d="M461.4,271.4l3.4,22.2h0.1l3.3-22.2h4.4l-5.7,31.6h-4.2l-5.9-31.6H461.4z"/>
	<path class="st2" d="M476.4,271.4h4.4V303h-4.4V271.4z"/>
	<path class="st2" d="M486.1,271.4h7.1c4.8,0,8.2,3.4,8.2,8.7c0,3.2-1.8,6.8-5.4,7.8l6.4,15.1h-5l-5.8-14.5h-1V303h-4.4v-31.6H486.1   z M490.5,284.8c4.3,0,6.3-1.3,6.3-5c0-2.6-1.7-4.6-4.8-4.6h-1.5V284.8z"/>
	<path class="st2" d="M513.3,270.8c7.6,0,8.3,8.3,8.3,16.4c0,8.7-1.5,16.4-8.3,16.4c-7.6,0-8.4-8.3-8.4-16.4   C504.9,278.5,506.4,270.8,513.3,270.8z M513.3,299.7c3.1,0,3.7-5.4,3.7-13.5c0-9.6-1.6-11.5-3.7-11.5c-2.3,0-3.8,3.2-3.8,13.2   C509.5,294.3,510.1,299.7,513.3,299.7z"/>
	<path class="st2" d="M530.2,271.4l6.4,20h0.1v-20h4.2V303h-4.4l-6.4-20H530v20h-4.2v-31.6H530.2z"/>
	<path class="st2" d="M550.6,271.4l6.4,21.1h0.1l6.4-21.1h4.7V303H564v-21h-0.1l-5.2,17.9h-3.3l-5.2-17.9h-0.1v21h-4.2v-31.6H550.6z   "/>
	<path class="st2" d="M584.6,271.4v3.7h-7.1v9.2h7.1v3.7h-7.1v11.2h7.1v3.7h-11.5v-31.6L584.6,271.4L584.6,271.4z"/>
	<path class="st2" d="M592.8,271.4l6.4,20h0.1v-20h4.2V303h-4.4l-6.4-20h-0.1v20h-4.2v-31.6H592.8z"/>
	<path class="st2" d="M612.7,275.4h-5.6v-4h15.5v4H617V303h-4.4v-27.6H612.7z"/>
</g>
<g>
	<path class="st3" d="M208,114.8h33.2l18.2,46l18.2-46h33.3v120.3h-29.6v-45c0-11.4,0.5-22.9,1.5-34.7h-2.2   c-1.3,5.8-3.9,13.8-7.7,24l-13.3,35.1l-13.2-35.1c-3.9-10.2-6.4-18.2-7.7-24h-2.3c1.1,10.9,1.6,22.4,1.6,34.7v45h-30V114.8z"/>
	<path class="st3" d="M326.7,114.8h33.2l18.2,46l18.2-46h33.3v120.3H400v-45c0-11.4,0.5-22.9,1.5-34.7h-2.2   c-1.3,5.8-3.9,13.8-7.7,24l-13.3,35.1l-13.2-35.1c-3.8-10.2-6.4-18.2-7.7-24h-2.3c1.1,10.9,1.6,22.4,1.6,34.7v45h-29.6V114.8H326.7   z"/>
	<path class="st3" d="M443.9,199.2c10,8.6,19.4,12.9,28.3,12.9c4.5,0,8.4-1.3,11.6-4.1c3.2-2.7,4.8-6,4.8-9.8c0-3.1-1.2-5.9-3.4-8.3   c-2.4-2.4-6.8-5.1-13.2-8.1c-9.1-4.2-16.1-8.8-20.9-13.9c-4.9-5.1-7.3-11.6-7.3-19.5c0-10,3.8-18.4,11.4-25.3   c7.6-6.9,17.6-10.3,30.1-10.3c8.6,0,17.5,2.1,26.7,6.4v28.7c-8.2-7.3-16.1-11-23.6-11c-3.7,0-7,1-9.7,3.1s-4.1,4.6-4.1,7.5   s1.1,5.3,3.4,7.4c2.2,2.1,6.2,4.3,12.1,6.7c9.7,4,17.1,8.6,22.2,13.8c5,5.2,7.5,12.3,7.5,21.1c0,11.2-4.3,20.7-13,28.5   c-8.7,7.9-19.2,11.8-31.7,11.8c-9.7,0-20.1-2.7-31.3-8.1v-29.5H443.9z"/>
	<path class="st3" d="M532.7,114.8h37.9c11.4,0,20.8,2.5,28.3,7.4s12.9,12,16.1,21.1c3.2,9.1,4.8,19.2,4.8,30.3   c0,18.6-4.5,33.5-13.6,44.7c-9,11.2-22.3,16.8-39.7,16.8h-33.8V114.8z M563,138.2v73.4h2.1c15.7,0,23.6-13.2,23.6-39.5   c0-10.2-1.7-18.4-5.1-24.6c-3.4-6.2-8.9-9.3-16.6-9.3H563z"/>
</g>
<g>
	<path class="st4" d="M117.4,193.9c-15.6,0-30.6-0.3-44.8,6.8c-10.8,5.4-22.4,19.9-14.7,32.3c5.1,8.2,17.3,10.8,26.1,12.2   c15.9,2.6,32.9,1.4,49.1,0.3c15.9-1.4,43.1-0.8,53.9-15.9c4.3-6,4.5-16.7-0.9-22.1c-6.5-6.5-22.7-6-31.5-7.7   c-12.5-2.5-26.4-6-39.1-6"/>
</g>
<g>
	<path class="st5" d="M165.9,169.2c-0.4,6.1-0.9,12.1-1.2,18.2c-0.2,5.5-0.8,10.9-0.9,16.4c0,4.5,0.3,9.3,0.9,13.9h-7.4   c0.8-9.1,1.9-18.1,2.5-27.1c0.7-10.5,1.6-21,3.6-31.2c1.7-8.6,2.9-17.3,4.4-25.9c0.7-4,1.4-8.8,3.4-12.3c-1.6,3.4-1.7,9.7-2.2,13.9   C167.5,146.3,166.7,157.8,165.9,169.2z"/>
	<path class="st5" d="M157.5,217.7c0.6-12.1,2.5-52.5,0.1-66.3c-2.9-16.3-8.1-27.5-8.1-27.5s7.5,10.4,9.9,28.6   c2,15,0.6,52.8,0.1,65.2H157.5z"/>
	<path class="st5" d="M158.2,217.7c0-3.3-0.2-6.6-0.5-9.7c-0.7-6.5-1.3-13.1-3-19.3c-0.9-3.1-1.9-6-2.9-9.1   c-0.9-2.8-1.5-5.5-2.8-8.1c-1.6-3.3-3-7.9-5-10.4c3.5,4.4,6.1,9.4,8.5,14.8c2.2,4.8,3.3,9.7,4.7,14.9c1.3,4.8,2.2,9.7,2.8,14.7   c0.5,4,1.4,8.2,1.6,12.4h-3.4V217.7z"/>
	<path class="st5" d="M164.9,217.7h-4.4c0.3-8.7,1-25.4,1.5-39.9c0.8-20.7,12.8-43.7,12.8-43.7s-5.2,11.4-8.6,34.9   C163.9,185,164.4,206.1,164.9,217.7z"/>
	<path class="st5" d="M156.9,217.7c0,0,1.9-25.8,0.8-37.2c-1.1-11.5-2.4-18.7-5.1-16.7c-2.8,2-10.5,10.1-12.5,17.5   c1-8.1,7.8-18.5,14.3-18.7s5.7,17.5,6,25.4C160.6,195.9,156.9,217.7,156.9,217.7z"/>
</g>
<g>
	<path class="st6" d="M178.7,214.3c7.7,13-32,16.4-37.4,17.3c-13.1,2-26.4,4.5-39.7,4.3c-7.9-0.3-21.6-1.1-27.5-7.7   c-8.7-9.7,5.6-18.3,13.1-22c4.5-2.2,9.4-4.4,14.3-5.6c8.9-2.2,18.2,0.2,27.1,1.4c10.2,1.4,20.3,1.5,30.3,4.4   C165.2,208.3,175,207.9,178.7,214.3z"/>
	<g>
		<path class="st7" d="M177.8,214.6c6.3,11.7-21.7,14.7-28.3,15.7c-19.3,2.7-38.7,7-58.2,4.4c-8-1.1-23.1-6.1-17.7-17    c2-4.1,6.8-7,10.6-9.3c7.2-4.2,15.6-7.8,24-8.2c6.6-0.3,13.2,1.3,19.7,2.3c6.9,1,14,1.4,20.9,2.4c5.2,0.7,10.1,2.3,15.2,3.2    C169.2,208.9,174.6,209.9,177.8,214.6c0.3,0.4,2.1-0.3,1.9-0.5c-2.5-3.7-6.2-5.1-10.4-6.1c-6.2-1.5-12.7-2.9-19-3.9    c-7.5-1.2-15.1-1.6-22.7-2.7c-6.7-1-13.5-2.6-20.3-2c-10.5,1-51.7,16.8-31.5,31.3c8.2,5.9,21.2,5.6,30.8,5.4    c12.3-0.3,24.4-3,36.6-4.5c6.5-0.8,13-1.8,19.4-3.3c5.5-1.3,12.3-3,16.4-7.3c2-2.1,2-4.6,0.7-7.1    C179.5,213.6,177.6,214.3,177.8,214.6z"/>
	</g>
</g>
<path class="st8" d="M70,165.5c-0.4,9.7-4.3,16-6.6,23.9c3.7-6,7.8-11.7,9.3-19.9c2.4,0.1,4.5-6.8,6.6-2.7  c11.4-12.5,17.4-30.4,39.8-31.8c-1.5,23.2,1.3,46.6,2.6,72.9c-0.5,4.4-7.6,2.1-11.9,2.7c0.8,6.5,7.2-0.7,11.9,1.3  c-2.2,1-7.3,4.4,0,4c-1,3-4,4-6.6,5.3c8.4-2.6,15.5-1.6,30.6-1.7c1.3-4.8-4-0.2-6.7-1c6.4-1.1,11.9-3.1,17.2-5.3  c-1.4-3-8.3-0.5-11.9-1.3c-0.5-3.2,6,0.7,4-4c-5.9,1.6-20,3.1-23.9-1.3c-0.4-38.7-2.5-72,18.6-90.2c14.6,0.6,26.3-13.1,30.7-29.5  c3.5-13.1,2.1-34.9-6.1-36.9c-8.2-2.1-11.9,3-12.7-6.6c8.1-13.1,34-6.3,51.7-6.6c-6.2-6.3-18.1-5.5-29.2-9.3  c-7.8-2.7-13.2-7.9-21.2-6.6c-9,1.5-14.5,9.3-15.5,18.5c-0.8,7.1,2,17.9,10.5,21.1c6.1,2.3,14.9,14.1,3.7,18.8  c-7.2-12.2-18.6-21.5-34.5-10.6c-23.3,16-42.3,60.7-53,84.9c5.6,1.1-5.6,17.7-8,23.9C59,179.6,66.5,168.1,70,165.5z"/>
<path class="st5" d="M85.2,207.3c0.2,3.3,0.5,6.6,0.6,10c0.1,3,0.5,6,0.5,9c0,2.5-0.1,5.1-0.5,7.6h4c-0.4-5-1-9.9-1.4-14.9  c-0.4-5.8-0.9-11.5-2-17.1c-0.9-4.7-1.6-9.5-2.4-14.2c-0.4-2.2-0.8-4.8-1.8-6.7c0.9,1.9,0.9,5.3,1.2,7.6  C84.3,194.8,84.7,201.1,85.2,207.3z"/>
<path class="st5" d="M89.9,234.7c-0.4-6.6-1.5-29.6-0.1-37.1c1.6-8.9,4.5-15.1,4.5-15.1s-4.1,5.7-5.4,15.6  c-1.1,8.2-0.2,29.7,0.1,36.5L89.9,234.7L89.9,234.7z"/>
<path class="st5" d="M89.4,234.7c0-1.8,0.1-4.4,0.2-6.1c0.6-5.9,0-4.5,1.7-10.6c0.5-1.7,1.1-3.3,1.6-5c0.5-1.6,0.8-3,1.6-4.4  c0.9-1.8,1.6-4.3,2.8-5.7c-1.9,2.4-3.3,5.2-4.7,8.1c-1.2,2.6-1.8,5.3-2.6,8.2c-0.7,2.6-1.2,5.3-1.6,8c-0.3,2.2-0.8,5.1-0.9,7.3  L89.4,234.7z"/>
<path class="st5" d="M85.8,233.9l2.4,0.7c-0.2-4.8-0.7-14.6-1-22.5c-0.5-11.4-7-24-7-24s2.8,6.2,4.7,19.1  C86.3,216,86.1,227.6,85.8,233.9z"/>
<path class="st9" d="M120.5,207c0,0-12.3,1.3-15.8,3.1s-8.6,6-6.8,10.3c1.8,4.3,9.2,5.8,16.6,5.4c7.4-0.4,13.3-1.3,27.7-4.5  s17.3-7.3,14.1-9.5s-7.1-5.4-18.4-5.4C125.6,206.3,120.5,207,120.5,207z"/>
<path class="st10" d="M217.2,152.1"/>
<path class="st10" d="M78.6-53.7"/>
<path class="st11" d="M121.1-2.8"/>
<path class="st11" d="M112-52.4"/>
<path class="st11" d="M149.9-15.2"/>
<path class="st11" d="M144-53.1"/>
<path class="st11" d="M176.7,0"/>
<path class="st11" d="M176-49.2"/>
<g id="notes_non_printing" class="st12">
	<polyline class="st13" points="39.3,416.9 39.3,368.3 124.4,368.3 124.4,416.9  "/>
	
		<text transform="matrix(1 0 0 1 39.3433 390.959)" style="display:inline;fill:#FFFFFF; font-family:'MyriadPro-Regular'; font-size:31.882px;">634c </text>
	<polyline class="st13" points="296.8,424.3 296.8,374.3 423.8,374.3 423.8,424.3  "/>
	
		<text transform="matrix(1 0 0 1 296.833 397.5703)" style="display:inline;fill:#FFFFFF; font-family:'MyriadPro-Regular'; font-size:32.8348px;">639c</text>
	<polyline class="st13" points="-131.5,326 -131.5,268 195.5,268 195.5,326  "/>
	
		<text transform="matrix(1 0 0 1 -131.5264 290.8901)" style="display:inline;fill:#FFFFFF; font-family:'MyriadPro-Regular'; font-size:32.2848px;">628c </text>
	<polyline class="st13" points="-190.3,201.6 -190.3,175.9 -92.1,175.9 -92.1,201.6  "/>
	
		<text transform="matrix(1 0 0 1 -190.3384 195.5776)" style="display:inline;fill:#FFFFFF; font-family:'MyriadPro-Regular'; font-size:27.7566px;"> 630c</text>
	<polyline class="st13" points="-79.1,215.3 -79.1,156.6 13,156.6 13,215.3  "/>
	
		<text transform="matrix(1 0 0 1 -79.062 178.4727)" style="display:inline;fill:#FFFFFF; font-family:'MyriadPro-Regular'; font-size:30.7455px;">354c</text>
	<g class="st14">
		<g>
			<line class="st15" x1="79.6" y1="366.8" x2="103.7" y2="306.8"/>
			<g>
				<circle class="st16" cx="103.6" cy="307.2" r="7.5"/>
			</g>
		</g>
	</g>
	<g class="st14">
		<g>
			<line class="st15" x1="335.4" y1="373.4" x2="307.2" y2="241.1"/>
			<g>
				<circle class="st16" cx="307.3" cy="241.5" r="7.5"/>
			</g>
		</g>
	</g>
	<g class="st14">
		<g>
			<line class="st15" x1="-8.4" y1="173.1" x2="154.4" y2="184.7"/>
			<g>
				<circle class="st16" cx="154" cy="184.7" r="7.5"/>
			</g>
		</g>
	</g>
	<g class="st14">
		<line class="st17" x1="-122.4" y1="191" x2="80.9" y2="224.4"/>
		<g>
			<line class="st15" x1="-122.4" y1="191" x2="73.9" y2="223.2"/>
			<g>
				<circle class="st16" cx="73.5" cy="223.1" r="7.5"/>
			</g>
		</g>
	</g>
	<g class="st14">
		<line class="st17" x1="-42.2" y1="274.8" x2="140.1" y2="242.1"/>
		<g>
			<line class="st15" x1="-42.2" y1="274.8" x2="133.1" y2="243.4"/>
			<g>
				<circle class="st16" cx="132.7" cy="243.4" r="7.5"/>
			</g>
		</g>
	</g>
</g>
</svg>
